<svg xmlns="http://www.w3.org/2000/svg" width="24" height="24" viewBox="0 0 24 24" fill="none">
    <path d="M19.5 14.25V12.75C19.5 11.5095 18.4905 10.5 17.25 10.5H12.75V3.375C12.75 2.75475 13.2548 2.25 13.875 2.25C14.4952 2.25 15 2.75475 15 3.375V4.5C15 4.914 15.336 5.25 15.75 5.25C16.164 5.25 16.5 4.914 16.5 4.5V3.375C16.5 1.9275 15.3225 0.75 13.875 0.75C13.14 0.75 12.477 1.05525 12 1.5435C11.523 1.05525 10.86 0.75 10.125 0.75C8.6775 0.75 7.5 1.9275 7.5 3.375V4.5C7.5 4.914 7.836 5.25 8.25 5.25C8.664 5.25 9 4.914 9 4.5V3.375C9 2.75475 9.50475 2.25 10.125 2.25C10.7453 2.25 11.25 2.75475 11.25 3.375V10.5H6.75C5.5095 10.5 4.5 11.5095 4.5 12.75V14.25C4.5 16.6237 6.084 18.6315 8.25 19.2787V21.75H6.75C6.336 21.75 6 22.086 6 22.5C6 22.914 6.336 23.25 6.75 23.25H17.25C17.664 23.25 18 22.914 18 22.5C18 22.086 17.664 21.75 17.25 21.75H15.75V19.2787C17.916 18.6315 19.5 16.623 19.5 14.25ZM6.75 12H17.25C17.6632 12 18 12.3368 18 12.75H6C6 12.3368 6.33675 12 6.75 12ZM6 14.25H18C18 16.3177 16.3177 18 14.25 18H9.75C7.68225 18 6 16.3177 6 14.25ZM14.25 21.75H9.75V19.5H14.25V21.75ZM16.5 7.5V8.25C16.5 8.664 16.164 9 15.75 9C15.336 9 15 8.664 15 8.25V7.5C15 7.086 15.336 6.75 15.75 6.75C16.164 6.75 16.5 7.086 16.5 7.5ZM7.5 8.25V7.5C7.5 7.086 7.836 6.75 8.25 6.75C8.664 6.75 9 7.086 9 7.5V8.25C9 8.664 8.664 9 8.25 9C7.836 9 7.5 8.664 7.5 8.25Z" fill="#7A998C"/>
</svg>