<svg xmlns="http://www.w3.org/2000/svg" width="24" height="24" viewBox="0 0 24 24" fill="none">
    <path d="M21.1538 2.04675C20.9688 1.90578 20.7535 1.81004 20.5249 1.7672C20.2963 1.72435 20.0609 1.73558 19.8375 1.8C18.4457 2.20236 17.2218 3.04519 16.3496 4.20206C15.4774 5.35892 15.0039 6.76743 15 8.21625V13.5C15 13.8978 15.158 14.2794 15.4393 14.5607C15.7206 14.842 16.1022 15 16.5 15H17.25V20.25C17.25 20.8467 17.4871 21.419 17.909 21.841C18.331 22.2629 18.9033 22.5 19.5 22.5C20.0967 22.5 20.669 22.2629 21.091 21.841C21.5129 21.419 21.75 20.8467 21.75 20.25V3.2445C21.751 3.01217 21.6976 2.78282 21.5941 2.57483C21.4905 2.36684 21.3397 2.18599 21.1538 2.04675ZM20.25 20.25C20.25 20.4489 20.171 20.6397 20.0303 20.7803C19.8897 20.921 19.6989 21 19.5 21C19.3011 21 19.1103 20.921 18.9697 20.7803C18.829 20.6397 18.75 20.4489 18.75 20.25V15C18.75 14.6022 18.592 14.2206 18.3107 13.9393C18.0294 13.658 17.6478 13.5 17.25 13.5H16.5V8.21625C16.5035 7.09351 16.8708 6.00215 17.5469 5.10579C18.223 4.20942 19.1714 3.55636 20.25 3.2445V20.25ZM10.5 1.5H4.5C3.90326 1.5 3.33097 1.73705 2.90901 2.15901C2.48705 2.58097 2.25 3.15326 2.25 3.75V9.75C2.25 10.5456 2.56607 11.3087 3.12868 11.8713C3.69129 12.4339 4.45435 12.75 5.25 12.75V20.25C5.25 20.8467 5.48705 21.419 5.90901 21.841C6.33097 22.2629 6.90326 22.5 7.5 22.5C8.09674 22.5 8.66903 22.2629 9.09099 21.841C9.51295 21.419 9.75 20.8467 9.75 20.25V12.75C10.5457 12.75 11.3087 12.4339 11.8713 11.8713C12.4339 11.3087 12.75 10.5456 12.75 9.75V3.75C12.75 3.15326 12.5129 2.58097 12.091 2.15901C11.669 1.73705 11.0967 1.5 10.5 1.5ZM11.25 9.75C11.25 10.1478 11.092 10.5294 10.8107 10.8107C10.5294 11.092 10.1478 11.25 9.75 11.25C9.35218 11.25 8.97065 11.408 8.68934 11.6893C8.40804 11.9706 8.25 12.3522 8.25 12.75V20.25C8.25 20.4489 8.17098 20.6397 8.03033 20.7803C7.88968 20.921 7.69891 21 7.5 21C7.30109 21 7.11032 20.921 6.96967 20.7803C6.82902 20.6397 6.75 20.4489 6.75 20.25V12.75C6.75 12.3522 6.59196 11.9706 6.31066 11.6893C6.02936 11.408 5.64783 11.25 5.25 11.25C4.85218 11.25 4.47064 11.092 4.18934 10.8107C3.90804 10.5294 3.75 10.1478 3.75 9.75V3.75C3.75 3.55109 3.82902 3.36032 3.96967 3.21967C4.11032 3.07902 4.30109 3 4.5 3H5.25V8.25C5.25 8.44891 5.32902 8.63968 5.46967 8.78033C5.61032 8.92098 5.80109 9 6 9C6.19891 9 6.38968 8.92098 6.53033 8.78033C6.67098 8.63968 6.75 8.44891 6.75 8.25V3H8.25V8.25C8.25 8.44891 8.32902 8.63968 8.46967 8.78033C8.61032 8.92098 8.80109 9 9 9C9.19891 9 9.38968 8.92098 9.53033 8.78033C9.67098 8.63968 9.75 8.44891 9.75 8.25V3H10.5C10.6989 3 10.8897 3.07902 11.0303 3.21967C11.171 3.36032 11.25 3.55109 11.25 3.75V9.75Z" fill="#7A998C"/>
</svg>