<svg xmlns="http://www.w3.org/2000/svg" width="24" height="24" viewBox="0 0 24 24" fill="none">
    <path d="M12 22.5C11.3962 22.5 10.8135 22.245 10.401 21.7995C7.7775 18.966 3.375 13.686 3.375 10.1617C3.375 5.38575 7.24425 1.5 12 1.5C16.7557 1.5 20.625 5.38575 20.625 10.1617C20.625 13.686 16.2225 18.966 13.5983 21.8002C13.1865 22.245 12.6038 22.5 12 22.5ZM12 3C8.0715 3 4.875 6.213 4.875 10.1617C4.875 12.33 7.353 16.2998 11.502 20.7803C11.7645 21.0638 12.2362 21.063 12.4972 20.7803C16.647 16.299 19.125 12.3293 19.125 10.161C19.125 6.21225 15.9285 3 12 3ZM12 14.0963C9.51825 14.0963 7.5 12.1462 7.5 9.75C7.5 7.35375 9.51825 5.40375 12 5.40375C14.4818 5.40375 16.5 7.35375 16.5 9.75C16.5 12.1462 14.4818 14.0963 12 14.0963ZM12 6.90375C10.3455 6.90375 9 8.18025 9 9.75C9 11.3197 10.3455 12.5963 12 12.5963C13.6545 12.5963 15 11.3197 15 9.75C15 8.18025 13.6545 6.90375 12 6.90375Z" fill="#7A998C"/>
</svg>