<svg xmlns="http://www.w3.org/2000/svg" width="36" height="36" viewBox="0 0 36 36" fill="none">
    <path fill-rule="evenodd" clip-rule="evenodd" d="M20.2128 34.6721H3.54065C1.32753 33.4918 0.589844 31.8689 0.589844 28.3279C0.589844 26.9763 0.775567 25.7485 0.976875 24.4177C1.21507 22.8431 1.47508 21.1242 1.47508 18.8853C1.47508 17.4971 1.45842 15.8257 1.4419 14.1679C1.40924 10.8919 1.37711 7.66857 1.47508 6.78689C1.59311 5.7246 4.13083 2.06558 5.31115 1.47542H18.1472C18.1472 1.47542 21.2948 5.70493 22.4259 6.78689H26.4095L32.4587 2.06558L35.7046 5.31148L29.5079 10.0328C29.6554 13.5246 29.862 20.9508 29.5079 22.7213C29.1538 24.4918 23.1636 31.4262 20.2128 34.6721ZM21.835 25.2295V9.88525C23.4579 9.09836 26.7038 9.23607 26.7038 16.082C26.7038 24.3443 23.4579 25.3279 21.835 25.2295Z" fill="#7A998C"/>
    <path opacity="0.25" d="M5.16406 24.4918H18.1477V23.6066H5.16406V24.4918Z" fill="white"/>
    <path opacity="0.5" d="M6.19629 23.6066V22.7213H17.1143V23.6066H6.19629Z" fill="white"/>
    <path d="M7.08203 22.7213V18.2951L9.44269 17.4098V22.7213H7.08203Z" fill="white"/>
    <path d="M9.44238 22.7213V11.5082H12.5407L16.2293 15.2964V22.7213H9.44238Z" fill="white"/>
    <path d="M10.623 15.3443H13.5739V17.1148H10.623V15.3443Z" fill="#FEC601"/>
    <path d="M10.623 18H13.5739V19.7705H10.623V18Z" fill="#FEC601"/>
    <mask id="mask0_168_2096" style="mask-type:alpha" maskUnits="userSpaceOnUse" x="0" y="1" width="36" height="34">
        <path d="M3.54065 34.6721H20.2128C23.1636 31.4262 29.1538 24.4918 29.5079 22.7213C29.862 20.9508 29.6554 13.5246 29.5079 10.0328L35.7046 5.31148L32.4587 2.06558L26.4095 6.78689H22.4259C21.2948 5.70493 18.1472 1.47542 18.1472 1.47542H5.31114C4.13083 2.06558 1.59311 5.7246 1.47508 6.78689C1.32754 8.11476 1.47508 14.7541 1.47508 18.8853C1.47508 23.0164 0.589844 25.3771 0.589844 28.3279C0.589844 31.8689 1.32753 33.4918 3.54065 34.6721Z" fill="#D9D9D9"/>
    </mask>
    <g mask="url(#mask0_168_2096)">
        <path d="M3.39298 3.39345H19.6225L20.3602 4.2787H2.65527L3.39298 3.39345Z" fill="#FEC601"/>
        <path d="M30.6875 3.24591C30.9826 3.541 33.0973 5.70493 34.0809 6.63936L35.1137 5.90165L31.7203 2.50821L30.6875 3.24591Z" fill="#FEC601"/>
    </g>
    <mask id="mask1_168_2096" style="mask-type:alpha" maskUnits="userSpaceOnUse" x="7" y="17" width="3" height="6">
        <path d="M7.08203 22.7213V18.2951L9.44269 17.4098V22.7213H7.08203Z" fill="white"/>
    </mask>
    <g mask="url(#mask1_168_2096)">
        <rect x="8.85254" y="17.4098" width="0.590164" height="5.31148" fill="#BCCCC6"/>
    </g>
</svg>