<svg xmlns="http://www.w3.org/2000/svg" version="1.1" style="display: none;">
    <symbol xmlns="http://www.w3.org/2000/svg" id="phone" viewBox="0 0 16 16">
        <path fill-rule="evenodd" clip-rule="evenodd" d="M7.23768 5.55865C7.58308 5.09318 7.70693 4.60261 7.31629 4.16959C6.43966 2.94294 5.8501 2.18438 5.4803 1.81907C4.77726 1.12458 3.62074 1.21853 3.01186 1.81848C2.68482 2.14072 2.57411 2.25138 2.23831 2.59246C0.367877 4.46389 1.50856 8.42005 4.54093 11.4554C7.5726 14.49 11.5284 15.6313 13.4027 13.7559C13.7126 13.4572 13.975 13.1947 14.1819 12.976C14.7786 12.3454 14.8691 11.2399 14.1779 10.5217C13.8236 10.1535 13.1002 9.59236 11.822 8.67801C11.4305 8.32794 10.9663 8.40381 10.5407 8.68301C10.336 8.81731 10.187 8.95317 9.9057 9.23476L9.39487 9.74587C9.32759 9.81319 8.41399 9.35566 7.52714 8.46794C6.63981 7.57974 6.1826 6.66609 6.24956 6.59913L6.76075 6.08766C6.85 5.99833 6.89266 5.95507 6.94739 5.89756C7.06139 5.77774 7.15578 5.66901 7.23768 5.55865ZM10.3372 10.6887L10.8481 10.1775C11.0029 10.0225 11.1032 9.92721 11.1849 9.86151C12.3046 10.6656 12.9531 11.1713 13.218 11.4465C13.3771 11.6118 13.3524 11.9133 13.2141 12.0594C13.0228 12.2616 12.7742 12.5104 12.4692 12.8046C11.2571 14.0171 8.06393 13.0958 5.48342 10.5128C2.9021 7.92893 1.98126 4.73524 3.18413 3.53171C3.51857 3.19203 3.62453 3.08613 3.9469 2.76848C4.06777 2.64939 4.39701 2.62264 4.54405 2.76789C4.82876 3.04914 5.35689 3.72537 6.13381 4.8076C6.09359 4.85753 6.04335 4.91396 5.98222 4.97821C5.93735 5.02537 5.89997 5.06326 5.81825 5.14506L5.30757 5.65602C4.43881 6.52471 5.17868 8.00319 6.58465 9.41054C7.98965 10.8169 9.46869 11.5576 10.3372 10.6887ZM9.10361 1.37961C11.9858 1.72896 14.2712 4.01433 14.6205 6.89654L13.3036 7.11604C13.0493 4.79446 11.2057 2.95085 8.88411 2.69656L9.10361 1.37961ZM8.66417 4.01473C10.4252 4.17224 11.8277 5.57477 11.9852 7.33579L10.664 7.55599C10.608 6.35539 9.64456 5.39198 8.44397 5.33591L8.66417 4.01473Z" />
    </symbol>
    <symbol id="menu" viewBox="0 0 16 16">
        <path fill-rule="evenodd" clip-rule="evenodd" d="M14.6663 4.66667V3.33333H1.33301V4.66667H14.6663ZM14.6663 7.33333V8.66667H1.33301V7.33333H14.6663ZM14.6663 11.3333V12.6667H1.33301V11.3333H14.6663Z"/>
    </symbol>
    <symbol id="close" viewBox="0 0 16 16">
        <path fill-rule="evenodd" clip-rule="evenodd" d="M7.99938 7.05719L12.242 2.81455L13.1848 3.75736L8.94219 8L13.1848 12.2426L12.242 13.1855L7.99938 8.94281L3.75674 13.1855L2.81393 12.2426L7.05657 8L2.81393 3.75736L3.75674 2.81455L7.99938 7.05719Z" />
    </symbol>

    <symbol id="mob-catalog" viewBox="0 0 16 16" fill="none">
        <g clip-path="url(#clip0_168_1586)">
            <path d="M7.99023 4.9491V7.43803" stroke="#EFF4F2" stroke-miterlimit="10" stroke-linecap="round" stroke-linejoin="round"/>
            <path d="M6.74512 6.19357H9.23581" stroke="#EFF4F2" stroke-miterlimit="10" stroke-linecap="round" stroke-linejoin="round"/>
            <path d="M11.1878 9.48606C12.1281 8.67969 13.0732 7.78972 13.7023 6.99731C14.3066 6.23625 14.6238 5.33841 14.6272 4.21572C14.6336 2.07581 13.123 0.625 11.1669 0.625C9.42072 0.625 8.04572 2.04294 8.00893 2.08119C8.00893 2.08119 6.57856 0.625 4.8324 0.625C2.87634 0.625 1.36568 2.07581 1.37209 4.21569C1.37543 5.33837 1.69268 6.23622 2.29697 6.99728C2.93056 7.79525 3.88681 8.69219 4.83662 9.50303" stroke="#EFF4F2" stroke-miterlimit="10" stroke-linecap="round" stroke-linejoin="round"/>
            <path d="M3.14144 14.2753C4.72672 15.8595 7.89075 15.2662 7.89075 15.2662C7.89075 15.2662 8.48453 12.1043 6.89925 10.5202C5.31397 8.93603 2.14994 9.52941 2.14994 9.52941C2.14994 9.52941 1.55613 12.6912 3.14144 14.2753Z" stroke="#EFF4F2" stroke-miterlimit="10" stroke-linecap="round" stroke-linejoin="round"/>
            <path d="M5.02051 12.3978L7.89091 15.2662" stroke="#EFF4F2" stroke-miterlimit="10" stroke-linecap="round" stroke-linejoin="round"/>
            <path d="M10.9788 12.3978L7.89062 15.2662" stroke="#EFF4F2" stroke-miterlimit="10" stroke-linecap="round" stroke-linejoin="round"/>
            <path d="M11.1247 15.1901C11.7593 15.0323 12.3802 14.7527 12.8579 14.2754C14.4432 12.6912 13.8494 9.5294 13.8494 9.5294C13.8494 9.5294 10.6854 8.93603 9.10009 10.5202C8.25952 11.3602 8.03159 12.6437 8.00293 13.6642" stroke="#EFF4F2" stroke-miterlimit="10" stroke-linecap="round" stroke-linejoin="round"/>
        </g>
        <defs>
            <clipPath id="clip0_168_1586">
                <rect width="16" height="16" fill="white"/>
            </clipPath>
        </defs>
    </symbol>

    <symbol id="ua" viewBox="0 0 20 20" fill="none">
        <path d="M0 9.99998H20V16.2069C20 16.3973 19.8455 16.5517 19.6551 16.5517H0.344843C0.154414 16.5517 0 16.3973 0 16.2069V9.99998Z" fill="#FFE15A"/>
        <path d="M20 9.99998H0V3.79308C0 3.60265 0.154414 3.44823 0.344843 3.44823H19.6552C19.8456 3.44823 20 3.60265 20 3.79308L20 9.99998Z" fill="#4173CD"/>
    </symbol>

    <symbol id="viber" viewBox="0 0 16 17" fill="none">
        <path d="M14.1957 1.65538C13.7772 1.26695 12.0835 0.0286272 8.30731 0.0120277C8.30731 0.0120277 3.85562 -0.256884 1.68744 1.74833C0.481428 2.96341 0.0563589 4.7462 0.0102274 6.95393C-0.0359041 9.16166 -0.091921 13.2982 3.8655 14.4204H3.8688L3.8655 16.1334C3.8655 16.1334 3.83914 16.8273 4.29387 16.9667C4.84086 17.1394 5.16378 16.6115 5.6877 16.0438C5.97437 15.7317 6.36979 15.2736 6.66964 14.925C9.37822 15.1541 11.4574 14.6295 11.6947 14.5532C12.2417 14.3739 15.3358 13.9755 15.8366 9.83892C16.3573 5.56953 15.5862 2.87378 14.1957 1.65538ZM14.6537 9.52685C14.2286 12.9795 11.721 13.1987 11.2597 13.348C11.062 13.4111 9.23323 13.8693 6.93654 13.7199C6.93654 13.7199 5.22309 15.8014 4.68928 16.3426C4.51464 16.5185 4.32352 16.5019 4.32682 16.1534C4.32682 15.9243 4.34 13.3082 4.34 13.3082C4.3367 13.3082 4.3367 13.3082 4.34 13.3082C0.985579 12.372 1.18329 8.84959 1.21953 7.00705C1.25578 5.16451 1.60176 3.65395 2.62325 2.63806C4.45862 0.961518 8.23811 1.21051 8.23811 1.21051C11.4311 1.22379 12.96 2.1932 13.3159 2.51855C14.4922 3.53444 15.0919 5.9646 14.6537 9.52685ZM10.0735 6.84437C10.0867 7.12988 9.6616 7.1498 9.64842 6.86429C9.61217 6.13391 9.27278 5.77869 8.57421 5.73885C8.29083 5.72225 8.31719 5.29398 8.59728 5.31058C9.51661 5.36038 10.0274 5.89156 10.0735 6.84437ZM10.7424 7.21952C10.7753 5.81188 9.90214 4.70968 8.2447 4.58684C7.96462 4.56692 7.99427 4.13866 8.27436 4.15858C10.1855 4.29801 11.2037 5.62265 11.1675 7.22948C11.1642 7.51499 10.7358 7.50171 10.7424 7.21952ZM12.2911 7.66439C12.2944 7.9499 11.866 7.95322 11.866 7.66771C11.8463 4.96199 10.057 3.48796 7.88554 3.47136C7.60545 3.46804 7.60545 3.04309 7.88554 3.04309C10.314 3.05969 12.268 4.74952 12.2911 7.66439ZM11.9187 10.9212V10.9278C11.5629 11.5586 10.8973 12.2558 10.2119 12.0334L10.2053 12.0234C9.51002 11.8275 7.87235 10.9776 6.83769 10.1477C6.30388 9.72272 5.81621 9.22142 5.44057 8.74003C5.10117 8.31176 4.75848 7.80382 4.42567 7.19296C3.72381 5.9148 3.56894 5.34378 3.56894 5.34378C3.34817 4.65324 4.03685 3.98262 4.66621 3.62407H4.6728C4.97596 3.46472 5.26592 3.51784 5.46034 3.75355C5.46034 3.75355 5.86893 4.24489 6.04357 4.48725C6.20833 4.713 6.4291 5.07487 6.54443 5.27738C6.74543 5.63925 6.62021 6.00776 6.42251 6.16047L6.02709 6.47918C5.82609 6.64186 5.85245 6.94397 5.85245 6.94397C5.85245 6.94397 6.43898 9.17826 8.63023 9.74264C8.63023 9.74264 8.93009 9.7692 9.09155 9.56669L9.40788 9.1683C9.55945 8.9691 9.92521 8.84295 10.2844 9.04546C10.7688 9.32101 11.3849 9.74928 11.7935 10.1377C12.0242 10.3269 12.0769 10.6158 11.9187 10.9212Z" fill="#592284"/>
    </symbol>

    <symbol id="vodafone" viewBox="0 0 16 16" fill="none">
        <g clip-path="url(#clip0_84_5406)">
            <path d="M5.05564 0.603276C7.06473 -0.19327 9.40501 -0.138171 11.3605 0.786993C10.8033 0.702783 10.2365 0.766269 9.68494 0.859033C8.18692 1.14045 6.76331 1.8416 5.65054 2.88321C4.58358 3.92647 3.83589 5.31068 3.62475 6.7916C3.48503 7.84094 3.6145 8.9416 4.08788 9.8967C4.57564 10.8988 5.43427 11.7207 6.46916 12.1449C7.46635 12.5646 8.6231 12.56 9.63318 12.1853C11.1487 11.6321 12.2377 10.1381 12.3622 8.54209C12.4406 7.49604 12.1848 6.38321 11.4783 5.58091C10.8038 4.79555 9.81738 4.36298 8.83027 4.11676C8.77736 3.14834 9.23603 2.1916 9.96337 1.56183C10.3673 1.19949 10.8686 0.968572 11.387 0.82071L11.4263 0.807223C12.9103 1.51512 14.1712 2.68255 14.9746 4.11578C15.6629 5.33601 16.0219 6.74209 15.9864 8.14275C15.9796 9.95393 15.299 11.7472 14.1324 13.1321C13.0292 14.4528 11.4862 15.4028 9.80448 15.7832C8.1183 16.1702 6.30415 16.0033 4.72611 15.2904C3.18196 14.6044 1.87376 13.4118 1.04158 11.9449C0.349286 10.7258 -0.0169505 9.32022 0.0134728 7.91791C0.0167797 6.17071 0.640457 4.43699 1.72941 3.07071C2.59929 1.97976 3.75322 1.11232 5.05564 0.603276Z" fill="#E60000"/>
            <path d="M9.68462 0.859031C10.2362 0.766268 10.803 0.702781 11.3602 0.786992L11.4402 0.800479L11.3867 0.820709C10.8683 0.968571 10.367 1.19949 9.96306 1.56183C9.23571 2.1916 8.77705 3.14834 8.82996 4.11676C9.81706 4.36298 10.8035 4.79555 11.4779 5.58091C12.1845 6.38321 12.4402 7.49604 12.3619 8.54209C12.2374 10.1381 11.1484 11.6321 9.63287 12.1853C8.62278 12.56 7.46604 12.5646 6.46885 12.1449C5.43396 11.7207 4.57533 10.8988 4.08757 9.8967C3.61419 8.9416 3.48472 7.84094 3.62444 6.7916C3.83558 5.31068 4.58327 3.92647 5.65023 2.88321C6.763 1.8416 8.18661 1.14045 9.68462 0.859031Z" fill="white"/>
        </g>
        <defs>
            <clipPath id="clip0_84_5406">
                <rect width="16" height="16" fill="white"/>
            </clipPath>
        </defs>
    </symbol>

    <symbol id="email" viewBox="0 0 16 16">
        <path fill-rule="evenodd" clip-rule="evenodd" d="M1.99984 2H13.9998C14.7362 2 15.3332 2.59695 15.3332 3.33333V12.6667C15.3332 13.403 14.7362 14 13.9998 14H1.99984C1.26346 14 0.666504 13.403 0.666504 12.6667V3.33333C0.666504 2.59695 1.26346 2 1.99984 2ZM1.99984 6.41207V12.6667H13.9998V6.41236L7.99982 9.41236L1.99984 6.41207ZM1.99984 4.92133L7.99985 7.92164L13.9998 4.92164V3.33333H1.99984V4.92133Z" />
    </symbol>
    <!--
        <symbol id="111111" viewBox="111111">
        </symbol>
    -->

</svg>