<svg xmlns="http://www.w3.org/2000/svg" width="50" height="50" viewBox="0 0 50 50" fill="none">
    <path d="M24.1033 1.81699C24.4701 1.07374 25.5299 1.07374 25.8967 1.81699L32.1146 14.4158C32.2603 14.711 32.5419 14.9156 32.8676 14.9629L46.7713 16.9832C47.5915 17.1024 47.919 18.1104 47.3255 18.6889L37.2647 28.4957C37.029 28.7255 36.9214 29.0565 36.9771 29.3809L39.3521 43.2284C39.4922 44.0453 38.6348 44.6682 37.9012 44.2825L25.4653 37.7446C25.174 37.5915 24.826 37.5915 24.5347 37.7446L12.0988 44.2825C11.3652 44.6682 10.5078 44.0453 10.6479 43.2284L13.0229 29.3809C13.0786 29.0565 12.971 28.7255 12.7353 28.4957L2.67454 18.6889C2.08102 18.1104 2.40853 17.1024 3.22875 16.9832L17.1324 14.9629C17.4581 14.9156 17.7397 14.711 17.8854 14.4158L24.1033 1.81699Z" fill="#CECFD9"/>
</svg>